<svg xmlns="http://www.w3.org/2000/svg" xmlns:xlink="http://www.w3.org/1999/xlink" xmlns:serif="http://www.serif.com/" width="100%" height="100%" viewBox="0 0 600 600" xml:space="preserve" style="fill-rule:evenodd;clip-rule:evenodd;stroke-linejoin:round;stroke-miterlimit:2;">
    <g transform="matrix(1,0,0,1,-1370,0)">
        <g id="guarantee" transform="matrix(1,0,0,1,1370,0)">
            <rect x="0" y="0" width="600" height="600" style="fill:none;"></rect>
            <rect x="0" y="0" width="600" height="600" style="fill:rgb(108,50,108);"></rect>
            <g id="Layer-2" serif:id="Layer 2" transform="matrix(0.288021,0,0,0.288021,213.594,213.594)">
                <g transform="matrix(1,0,0,1,696.096,505.495)">
                    <path d="M0,-398.476C-22.207,-398.476 -44.048,-402.037 -64.896,-409.059C-74.031,-412.124 -84.129,-409.764 -90.952,-402.95C-218.247,-275.655 -492.533,-1.378 -593.533,99.631C-600.357,106.456 -602.729,116.552 -599.644,125.698C-578.537,188.373 -588.634,255.223 -627.355,309.13C-665.969,362.878 -726.055,393.715 -792.191,393.715C-799.62,393.715 -807.01,393.309 -814.33,392.525L-733.683,312.503C-728.882,307.742 -726.174,301.255 -726.174,294.481L-726.174,222.651C-726.174,215.917 -728.852,209.46 -733.613,204.699L-806.306,132.005C-811.066,127.245 -817.523,124.567 -824.258,124.567L-896.088,124.567C-902.862,124.567 -909.35,127.275 -914.12,132.075L-994.133,212.722C-994.926,205.403 -995.323,198.013 -995.323,190.585C-995.323,124.438 -964.496,64.362 -910.737,25.749C-856.841,-12.973 -789.979,-23.08 -727.295,-1.963C-718.16,1.121 -708.062,-1.249 -701.239,-8.074C-699.84,-9.462 -199.015,-510.298 -198.658,-510.655C-191.834,-517.478 -189.474,-527.566 -192.548,-536.71C-213.664,-599.386 -203.587,-666.217 -164.896,-720.084C-126.253,-773.882 -66.156,-804.728 -0.01,-804.728C7.647,-804.728 15.255,-804.302 22.793,-803.469L-56.179,-723.317C-60.859,-718.566 -63.479,-712.169 -63.479,-705.504L-63.479,-633.674C-63.479,-627.088 -60.93,-620.77 -56.356,-616.039L13.797,-543.346C18.577,-538.387 25.174,-535.59 32.066,-535.59L103.896,-535.59C110.661,-535.59 117.147,-538.288 121.919,-543.098L201.932,-623.736C202.725,-616.416 203.121,-609.026 203.121,-601.598C203.121,-489.598 112,-398.476 0,-398.476M-214.785,-135.764L-327.014,-23.556L-361.292,-60.79L-252.089,-170.003L-214.785,-135.764ZM-177.333,-101.397L173.753,220.687C212.971,260.322 212.852,324.495 173.386,363.98C133.831,403.535 69.797,403.654 30.083,364.327L-292.586,13.836L-177.333,-101.397ZM-823.197,-596.688C-827.958,-601.458 -834.415,-603.889 -841.159,-603.889L-898.588,-603.909L-988.707,-754.372L-944.937,-798.143L-794.73,-708.003L-794.73,-650.575C-794.73,-643.851 -792.062,-637.403 -787.312,-632.643L-468.253,-312.86L-504.168,-276.955L-823.197,-596.688ZM222.354,-699.305C213.784,-701.298 204.778,-698.71 198.589,-692.461L93.323,-586.363L42.858,-586.363L-12.695,-643.92L-12.695,-695.089L91.063,-800.394C97.202,-806.623 99.701,-815.58 97.668,-824.1C95.645,-832.61 89.376,-839.473 81.084,-842.27C55.019,-851.058 27.742,-855.512 0,-855.512C-82.7,-855.512 -157.833,-816.948 -206.137,-749.711C-251.345,-686.768 -265.28,-609.631 -245.314,-535.808L-432.348,-348.774L-743.948,-661.089L-743.948,-722.385C-743.948,-731.302 -748.63,-739.574 -756.276,-744.156L-935.812,-851.891C-945.81,-857.892 -958.595,-856.315 -966.827,-848.073L-1038.64,-776.272C-1046.87,-768.03 -1048.45,-755.245 -1042.46,-745.247L-934.74,-565.712C-930.158,-558.065 -921.896,-553.393 -912.979,-553.384L-851.703,-553.364L-540.073,-241.05L-726.393,-54.73C-800.216,-74.686 -877.392,-60.731 -940.364,-15.493C-1007.56,32.781 -1046.1,107.894 -1046.1,190.594C-1046.1,218.327 -1041.64,245.612 -1032.85,271.669C-1030.05,280.009 -1023.11,286.308 -1014.55,288.292C-1005.97,290.286 -996.97,287.697 -990.771,281.448L-885.515,175.36L-834.771,175.36L-776.957,233.174L-776.957,283.918L-883.045,389.173C-889.294,395.372 -891.883,404.368 -889.889,412.948C-887.905,421.517 -881.607,428.451 -873.266,431.257C-847.21,440.045 -819.924,444.499 -792.191,444.499C-709.491,444.499 -634.388,405.955 -586.104,338.757C-540.866,275.785 -526.911,198.619 -546.867,124.795L-397.227,-24.846L-362.948,12.388L-378.679,28.109C-388.598,38.028 -388.598,54.106 -378.679,64.024C-368.761,73.933 -352.692,73.933 -342.764,64.024L-328.521,49.781L-6.903,399.131C-6.665,399.389 -6.417,399.637 -6.169,399.885C53.342,459.396 149.76,459.416 209.301,399.875C268.673,340.473 268.673,243.817 209.301,184.416C209.043,184.157 208.775,183.91 208.507,183.662L-141.389,-137.341L-127.304,-151.426C-117.386,-161.334 -117.386,-177.413 -127.304,-187.33C-137.223,-197.249 -153.29,-197.249 -163.219,-187.33L-178.841,-171.7L-216.145,-205.938L-65.779,-356.303C-44.405,-350.59 -22.347,-347.693 0,-347.693C140.01,-347.693 253.904,-461.598 253.904,-601.598C253.904,-629.34 249.451,-656.616 240.663,-682.682C237.856,-691.023 230.923,-697.321 222.354,-699.305" style="fill:white;fill-rule:nonzero;"></path>
                </g>
                <g transform="matrix(1,0,0,1,440.912,476.811)">
                    <path d="M0,-353.645L-317.739,-35.905C-327.648,-25.997 -327.648,-9.919 -317.739,0C-307.821,9.918 -291.743,9.918 -281.824,0L35.915,-317.74C45.834,-327.648 45.834,-343.727 35.915,-353.645C25.997,-363.563 9.919,-363.563 0,-353.645" style="fill:white;fill-rule:nonzero;"></path>
                </g>
                <g transform="matrix(1,0,0,1,761.777,533.565)">
                    <path d="M0,264.11C9.919,273.999 25.996,273.999 35.915,264.05C45.813,254.122 45.784,238.044 35.855,228.145L-193.015,0.009C-202.942,-9.889 -219.03,-9.86 -228.919,0.069C-238.828,10.007 -238.798,26.075 -228.87,35.973L0,264.11Z" style="fill:white;fill-rule:nonzero;"></path>
                </g>
            </g>
        </g>
    </g>
</svg>